<?xml version="1.0" standalone="no"?>
<!DOCTYPE svg PUBLIC "-//W3C//DTD SVG 20010904//EN"
 "http://www.w3.org/TR/2001/REC-SVG-20010904/DTD/svg10.dtd">
<svg version="1.0" xmlns="http://www.w3.org/2000/svg"
 width="16.000000pt" height="16.000000pt" viewBox="0 0 16.000000 16.000000"
 preserveAspectRatio="xMidYMid meet">
<metadata>
Created by potrace 1.11, written by Peter Selinger 2001-2013
</metadata>
<g transform="translate(0.000000,16.000000) scale(0.001852,-0.001852)"
fill="#000000" stroke="none">
<path d="M2329 7476 c-2 -2 -56 -6 -119 -10 -108 -7 -160 -11 -270 -20 -73 -7
-163 -16 -196 -21 -17 -2 -55 -7 -85 -10 -54 -6 -94 -12 -94 -15 0 -1 -13 -3
-30 -5 -71 -9 -112 -15 -135 -20 -14 -3 -36 -7 -50 -10 -14 -3 -36 -7 -50 -10
-14 -3 -38 -7 -55 -10 -33 -5 -50 -8 -115 -24 -55 -14 -76 -19 -115 -27 -34
-7 -163 -44 -280 -81 -286 -91 -550 -231 -688 -365 -16 -16 -33 -28 -38 -28
-33 0 47 -93 100 -117 41 -18 168 -24 221 -11 96 24 176 53 233 84 l29 16 -7
-53 c-4 -30 -9 -57 -11 -60 -2 -4 -6 -26 -9 -50 -3 -24 -7 -55 -10 -69 -7 -32
-25 -154 -30 -200 -2 -19 -7 -51 -10 -70 -3 -19 -8 -53 -10 -74 -3 -21 -7 -57
-10 -80 -3 -23 -8 -58 -10 -78 -8 -63 -16 -122 -20 -148 -2 -14 -7 -54 -10
-90 -11 -113 -13 -134 -20 -195 -4 -33 -9 -76 -11 -95 -2 -19 -5 -55 -8 -80
-2 -25 -7 -76 -10 -115 -4 -38 -8 -90 -11 -115 -12 -126 -22 -241 -30 -350 -3
-47 -8 -110 -10 -140 -59 -770 -74 -1548 -40 -2200 3 -57 14 -191 21 -250 3
-25 7 -69 9 -97 3 -29 7 -68 11 -85 3 -18 8 -51 10 -73 2 -22 6 -51 9 -65 3
-14 8 -40 11 -59 6 -35 8 -47 25 -121 5 -25 12 -58 15 -75 10 -52 71 -228 100
-291 38 -81 108 -174 153 -205 38 -25 97 -50 103 -43 2 2 2 165 0 361 -14
1166 -4 2599 22 3203 3 74 8 182 11 240 2 58 7 143 10 190 3 47 7 126 10 175
8 145 15 246 20 300 3 28 7 84 10 126 3 42 7 98 10 125 6 68 13 147 20 224 8
92 15 161 20 190 3 14 7 52 10 85 3 33 7 76 10 95 3 19 7 60 10 90 3 30 7 66
10 80 3 14 8 49 11 79 3 30 8 64 10 75 2 12 7 44 10 71 3 28 9 53 13 56 5 6
122 30 206 43 17 3 44 7 60 10 89 14 155 22 260 31 44 3 96 8 115 10 119 13
212 19 525 30 430 16 1158 1 1500 -29 28 -3 91 -8 140 -11 50 -4 104 -8 120
-11 17 -2 57 -6 90 -9 94 -9 221 -24 265 -31 14 -2 48 -7 75 -10 48 -5 133
-19 185 -29 14 -3 54 -10 90 -15 36 -6 92 -17 125 -26 33 -8 69 -16 80 -18 49
-10 194 -60 235 -82 126 -65 137 -119 43 -211 -81 -79 -289 -204 -606 -364
-350 -176 -700 -358 -759 -396 -21 -12 -40 -23 -42 -23 -4 0 -227 -130 -284
-165 -207 -129 -415 -288 -549 -421 -62 -62 -113 -115 -113 -118 0 -4 -9 -17
-21 -29 -28 -29 -119 -184 -119 -202 0 -7 -4 -16 -9 -19 -20 -13 -48 -171 -42
-239 3 -39 170 -116 286 -131 22 -3 69 -10 104 -14 68 -10 402 -8 464 2 20 3
54 8 75 11 52 8 91 15 137 25 22 5 56 12 75 15 19 3 51 10 70 15 19 5 46 11
60 14 21 4 203 49 250 62 8 2 47 13 85 24 39 12 78 23 87 25 9 2 62 18 117 35
55 18 103 32 106 31 2 0 25 8 50 19 25 11 45 18 45 16 0 -3 24 5 53 16 28 10
57 21 62 22 12 3 1 -1 185 66 161 59 306 115 332 130 10 6 22 10 28 10 5 0 35
12 67 26 32 15 72 32 88 39 17 7 56 25 88 39 31 14 83 38 115 52 113 51 451
223 528 269 106 64 208 128 214 136 3 3 19 13 37 22 17 9 37 22 45 30 7 7 49
37 93 67 109 73 733 532 840 617 70 56 177 133 184 133 5 0 11 4 13 8 3 9 113
90 238 177 47 32 87 62 90 65 3 4 10 9 15 11 9 4 200 129 292 191 44 30 55 27
48 -13 -6 -31 -14 -83 -20 -139 -6 -48 -11 -90 -20 -155 -2 -22 -7 -57 -10
-79 -2 -21 -7 -55 -10 -75 -5 -35 -9 -77 -20 -178 -3 -27 -7 -66 -10 -88 -4
-42 -16 -143 -20 -185 -2 -14 -6 -54 -9 -90 -4 -36 -9 -87 -12 -115 -3 -27 -7
-70 -10 -95 -2 -25 -6 -63 -9 -85 -2 -22 -7 -71 -10 -110 -4 -64 -8 -101 -20
-235 -7 -73 -17 -191 -20 -245 -6 -113 -16 -263 -21 -308 -2 -27 -7 -103 -10
-170 -3 -67 -7 -149 -9 -182 -27 -489 -26 -1315 1 -1650 3 -33 6 -81 9 -107 4
-61 15 -164 21 -208 3 -19 7 -53 9 -75 2 -22 6 -50 9 -62 4 -19 11 -65 21
-133 2 -14 6 -36 9 -50 3 -14 8 -36 11 -50 13 -60 16 -76 21 -100 3 -14 7 -29
8 -35 1 -5 17 -56 34 -112 97 -307 219 -480 382 -541 24 -9 26 -8 25 24 0 19
-4 34 -8 34 -5 0 -6 3 -3 8 2 4 0 28 -4 53 -5 26 -11 69 -14 96 -2 27 -7 60
-10 73 -3 14 -8 50 -11 80 -3 30 -8 75 -12 100 -3 25 -6 69 -7 97 -1 29 -3 53
-6 53 -3 0 -6 8 -6 18 0 9 -4 49 -7 87 -4 39 -10 99 -13 135 -2 36 -7 84 -9
107 -14 144 -29 405 -41 728 -9 240 -9 1177 0 1435 4 107 9 236 11 285 5 153
18 399 30 575 2 41 7 111 10 155 10 165 15 242 20 295 3 30 7 91 10 135 3 44
7 98 10 120 2 22 6 76 10 120 3 44 8 100 11 125 2 25 6 77 9 115 3 39 7 86 10
105 4 34 9 78 20 205 3 33 8 76 10 95 2 19 7 64 10 100 3 36 7 81 10 100 2 19
9 82 15 140 6 58 13 119 16 135 2 17 6 53 9 80 2 28 7 69 11 93 5 32 3 42 -7
43 -8 0 -23 2 -34 5 -11 2 -33 6 -50 8 -16 3 -43 8 -60 11 -168 30 -201 29
-241 -9 -16 -16 -45 -40 -169 -141 -60 -49 -121 -100 -135 -113 -14 -12 -33
-25 -42 -28 -10 -3 -18 -9 -18 -13 0 -4 -21 -23 -47 -41 -27 -19 -52 -39 -58
-46 -5 -6 -57 -47 -115 -90 -57 -43 -116 -89 -130 -101 -14 -13 -28 -23 -31
-23 -3 0 -17 -9 -30 -21 -24 -21 -53 -42 -299 -218 -69 -50 -129 -94 -135 -98
-38 -31 -377 -253 -385 -253 -5 0 -10 -4 -10 -10 0 -5 -4 -10 -10 -10 -5 0
-35 -17 -67 -39 -86 -57 -164 -106 -198 -125 -16 -9 -37 -21 -45 -26 -165
-106 -639 -357 -895 -475 -109 -50 -378 -165 -400 -171 -5 -1 -68 -25 -140
-52 -121 -46 -400 -140 -436 -147 -8 -2 -40 -11 -70 -20 -78 -23 -240 -66
-269 -70 -14 -2 -41 -9 -60 -15 -19 -6 -51 -13 -70 -16 -19 -2 -50 -9 -70 -14
-37 -9 -102 -21 -135 -25 -11 -1 -33 -5 -50 -9 -16 -3 -43 -8 -60 -11 -16 -2
-47 -6 -67 -9 -21 -3 -54 -8 -73 -11 -19 -3 -50 -7 -67 -10 -41 -6 -133 -15
-218 -20 -36 -3 -89 -7 -117 -9 -57 -4 -63 1 -35 25 9 9 36 36 58 60 141 151
329 298 516 406 46 26 85 50 88 53 3 3 25 16 50 28 122 64 145 76 150 81 9 10
198 107 570 293 335 167 397 200 500 263 44 27 122 77 135 88 268 204 376 337
413 511 52 246 -114 401 -573 537 -55 17 -111 32 -125 35 -14 3 -33 7 -42 10
-10 3 -28 7 -40 10 -13 2 -34 6 -48 9 -14 3 -47 10 -75 15 -27 5 -61 11 -75
14 -48 10 -155 27 -185 30 -16 2 -44 6 -60 10 -17 3 -57 8 -90 11 -33 2 -71 7
-85 9 -14 3 -50 8 -80 11 -30 3 -69 7 -87 10 -18 2 -70 7 -115 10 -46 4 -101
8 -123 11 -22 2 -74 7 -115 10 -41 3 -93 7 -115 9 -22 1 -89 6 -150 10 -60 5
-128 10 -150 12 -49 5 -901 13 -906 9z"/>
</g>
</svg>
