<!-- Generator: Adobe Illustrator 21.0.2, SVG Export Plug-In  -->
<svg version="1.1"
	 xmlns="http://www.w3.org/2000/svg" xmlns:xlink="http://www.w3.org/1999/xlink" xmlns:a="http://ns.adobe.com/AdobeSVGViewerExtensions/3.0/"
	 x="0px" y="0px" width="56px" height="52.7px" viewBox="0 0 56 52.7" style="enable-background:new 0 0 56 52.7;"
	 xml:space="preserve">
<style type="text/css">
	.st0{fill-rule:evenodd;clip-rule:evenodd;}
</style>
<defs>
</defs>
<g id="LOGO_2_">
	<g>
		<path class="st0" d="M53.9,0.8c-1.4,11.9-2.4,26.9-0.5,38.4c-6-1.6-3.1-27.7-2-35.6C47.2,6.1,42,10.7,38,13
			c-4.9,2.7-11.4,5-16.2,5.8c-1.9,0.3-5,0.2-5.8-0.8c-0.2-6.2,16.3-10.8,16.3-13c0-2.1-18.6-3.3-26.1-1.6
			C4.5,14.9,4.8,28.9,4.9,39.4c-5.1-1-2.6-27.6-1.2-35.1c0,0-2.8,1.6-3.7-0.1c3.4-3.5,13.2-4.6,20.3-4.1C24.7,0.4,34.8,1,34.8,4.3
			c0,3.3-5.6,5.4-7.9,6.6c-3.7,2-5.5,2.7-7.8,5.3c12.3-0.6,23.3-7.9,32.6-15.7C52.3,0.5,53.5,0.8,53.9,0.8z"/>
		<g id="MARO_2_">
			<path d="M8.3,52.6H7.9v-4.9l-2.2,4.9H5.2L3,47.7v4.9H2.6V47h0.6l2.2,5l2.2-5h0.6V52.6z"/>
			<path d="M24.2,52.6h-0.5L23,50.8h-3c-0.1,0.3-0.2,0.6-0.4,0.9c-0.1,0.3-0.2,0.6-0.4,0.9h-0.5c0.2-0.5,0.4-0.9,0.6-1.4
				c0.2-0.5,0.4-0.9,0.6-1.4c0.2-0.5,0.4-0.9,0.6-1.4c0.2-0.5,0.4-0.9,0.6-1.4h0.6L24.2,52.6z M22.8,50.5l-1.4-3.1l-1.3,3.1H22.8z"
				/>
			<path d="M39.6,52.6h-0.5l-0.6-1.5c-0.1-0.1-0.1-0.3-0.2-0.4c-0.1-0.1-0.2-0.2-0.3-0.3c-0.1-0.1-0.2-0.2-0.3-0.2
				c-0.1-0.1-0.3-0.1-0.4-0.1h-2.1v2.5h-0.4V47h2.7c0.3,0,0.5,0,0.7,0.1c0.2,0,0.5,0.1,0.6,0.2c0.2,0.1,0.3,0.3,0.4,0.4
				c0.1,0.2,0.2,0.4,0.2,0.7c0,0.2,0,0.4-0.1,0.5c0,0.2-0.1,0.3-0.2,0.4c-0.1,0.1-0.2,0.2-0.4,0.3c-0.2,0.1-0.3,0.2-0.6,0.2
				c0.1,0.1,0.2,0.2,0.3,0.2c0.1,0.1,0.1,0.2,0.2,0.2c0.1,0.1,0.1,0.2,0.1,0.3c0,0.1,0.1,0.2,0.1,0.3L39.6,52.6z M35.2,49.7h2.1
				c0.3,0,0.6,0,0.8-0.1c0.2,0,0.4-0.1,0.5-0.2c0.1-0.1,0.2-0.2,0.3-0.4c0.1-0.1,0.1-0.3,0.1-0.5c0-0.4-0.1-0.7-0.4-0.8
				c-0.3-0.2-0.7-0.2-1.2-0.2h-2.2V49.7z"/>
			<path d="M53.1,46.9c0.4,0,0.8,0.1,1.2,0.2c0.4,0.1,0.7,0.3,0.9,0.6c0.3,0.2,0.5,0.5,0.6,0.9c0.1,0.4,0.2,0.7,0.2,1.2
				c0,0.4-0.1,0.8-0.2,1.2c-0.1,0.4-0.3,0.7-0.6,0.9c-0.3,0.3-0.6,0.5-0.9,0.6c-0.4,0.1-0.7,0.2-1.2,0.2c-0.4,0-0.8-0.1-1.2-0.2
				c-0.4-0.1-0.7-0.3-0.9-0.6c-0.3-0.3-0.5-0.6-0.6-0.9c-0.1-0.4-0.2-0.7-0.2-1.2c0-0.4,0.1-0.8,0.2-1.2c0.1-0.4,0.3-0.6,0.6-0.9
				c0.3-0.2,0.6-0.4,0.9-0.6C52.3,47,52.7,46.9,53.1,46.9z M53.1,52.3c0.3,0,0.7-0.1,1-0.2c0.3-0.1,0.5-0.3,0.8-0.5
				c0.2-0.2,0.4-0.5,0.5-0.8c0.1-0.3,0.2-0.7,0.2-1.1c0-0.4-0.1-0.7-0.2-1.1c-0.1-0.3-0.3-0.6-0.5-0.8c-0.2-0.2-0.5-0.4-0.8-0.5
				c-0.3-0.1-0.6-0.2-1-0.2c-0.4,0-0.7,0.1-1,0.2c-0.3,0.1-0.5,0.3-0.8,0.5c-0.2,0.2-0.4,0.5-0.5,0.8c-0.1,0.3-0.2,0.7-0.2,1
				c0,0.4,0.1,0.7,0.2,1.1c0.1,0.3,0.3,0.6,0.5,0.8c0.2,0.2,0.5,0.4,0.8,0.5C52.5,52.2,52.8,52.3,53.1,52.3z"/>
		</g>
	</g>
</g>
</svg>
