<!-- Generator: Adobe Illustrator 21.0.2, SVG Export Plug-In  -->
<svg version="1.1"
	 xmlns="http://www.w3.org/2000/svg" xmlns:xlink="http://www.w3.org/1999/xlink" xmlns:a="http://ns.adobe.com/AdobeSVGViewerExtensions/3.0/"
	 x="0px" y="0px" width="53.9px" height="39.4px" viewBox="0 0 53.9 39.4" style="enable-background:new 0 0 53.9 39.4;"
	 xml:space="preserve">
<style type="text/css">
	.st0{fill-rule:evenodd;clip-rule:evenodd;fill:#2D2B6D;}
</style>
<defs>
</defs>
<path class="st0" d="M53.9,0.8c-1.4,11.9-2.4,26.9-0.5,38.4c-6-1.6-3.1-27.7-2-35.6C47.2,6.1,42,10.7,38,13
	c-4.9,2.7-11.4,5-16.2,5.8c-1.9,0.3-5,0.2-5.8-0.8c-0.2-6.2,16.3-10.8,16.3-13c0-2.1-18.6-3.3-26.1-1.6C4.5,14.9,4.8,28.9,4.9,39.4
	c-5.1-1-2.6-27.6-1.2-35.1c0,0-2.8,1.6-3.7-0.1c3.4-3.5,13.2-4.6,20.3-4.1C24.7,0.4,34.8,1,34.8,4.3c0,3.3-5.6,5.4-7.9,6.6
	c-3.7,2-5.5,2.7-7.8,5.3c12.3-0.6,23.3-7.9,32.6-15.7C52.3,0.5,53.5,0.8,53.9,0.8z"/>
</svg>
