<?xml version="1.0" encoding="utf-8"?>
<!-- Generator: Adobe Illustrator 17.0.0, SVG Export Plug-In . SVG Version: 6.00 Build 0)  -->
<!DOCTYPE svg PUBLIC "-//W3C//DTD SVG 1.1//EN" "http://www.w3.org/Graphics/SVG/1.1/DTD/svg11.dtd">
<svg version="1.1" id="Layer_1" xmlns="http://www.w3.org/2000/svg" xmlns:xlink="http://www.w3.org/1999/xlink" x="0px" y="0px"
	 width="834.667px" height="216px" viewBox="0 0 834.667 216" enable-background="new 0 0 834.667 216" xml:space="preserve">
<g>
	<g>
		<g id="Nuva_Logo_2_">
			<path fill="#757575" d="M89.996,215.779c-1.614,0.498-4.075,0.126-5.47-0.825L9.562,163.811c-1.395-0.952-2.64-3.108-2.766-4.792
				L0.012,68.54c-0.126-1.684,0.783-4.002,2.021-5.15L68.526,1.68c1.238-1.149,3.617-1.883,5.286-1.631l89.696,13.515
				c1.67,0.252,3.727,1.654,4.571,3.116l45.369,78.599c0.844,1.463,1.03,3.945,0.414,5.517l-33.129,84.482
				c-0.616,1.572-2.441,3.265-4.054,3.763L89.996,215.779L89.996,215.779z M135.233,142.477c1.614-0.498,3.438-2.191,4.054-3.763
				l14.228-36.281c0.616-1.572,0.43-4.055-0.414-5.517L133.617,63.16c-0.844-1.463-2.901-2.865-4.571-3.116L90.527,54.24
				c-1.67-0.252-4.048,0.483-5.286,1.631L56.686,82.373c-1.238,1.149-2.147,3.466-2.021,5.15l2.914,38.857
				c0.126,1.684,1.371,3.84,2.766,4.792l32.194,21.963c1.395,0.952,3.856,1.323,5.47,0.825L135.233,142.477L135.233,142.477z"/>
		</g>
	</g>
	<g>
		<path fill="#757575" d="M291.479,138.346l-35.183-53.759v53.759h-4.451V77.653h5.05l35.268,53.673V77.653h4.366v60.693H291.479z"
			/>
		<path fill="#757575" d="M343.947,139.459c-14.553,0-21.486-10.016-21.486-23.369V77.653h4.451v38.522
			c0,10.529,5.136,19.004,17.035,19.004c11.899,0,17.12-8.475,17.12-19.004V77.653h4.451v38.436
			C365.519,129.443,358.501,139.459,343.947,139.459z"/>
		<path fill="#757575" d="M408.829,138.346h-4.195L382.89,77.653h4.709l19.26,54.273l19.004-54.273h4.707L408.829,138.346z"/>
		<path fill="#757575" d="M483.641,138.346l-6.163-16.007h-29.361l-5.992,16.007h-4.624l23.027-60.693h4.366l23.285,60.693H483.641z
			 M462.669,83.817l-12.925,34.327h26.108L462.669,83.817z"/>
		<path fill="#757575" d="M506.237,138.346v-7.704h7.532v7.704H506.237z"/>
		<path fill="#757575" d="M569.152,111.382l12.326,26.965h-4.88l-11.898-25.852h-21.145v25.852h-4.451V77.653h22.17
			c13.27,0,20.46,6.934,20.46,17.463C581.735,103.078,576.771,109.327,569.152,111.382z M561.275,81.849h-17.719v26.537h17.719
			c10.017,0,15.837-4.623,15.837-13.269C577.112,86.471,571.292,81.849,561.275,81.849z"/>
		<path fill="#757575" d="M638.31,133.296c-3.767,3.595-8.989,6.163-15.581,6.163c-6.591,0-11.812-2.568-15.579-6.163
			c-6.849-6.592-7.619-16.607-7.619-25.339s0.77-18.661,7.619-25.253c3.767-3.595,8.988-6.164,15.579-6.164
			c6.591,0,11.814,2.569,15.581,6.164c6.847,6.591,7.619,16.521,7.619,25.253S645.157,126.704,638.31,133.296z M635.057,85.615
			c-3.168-3.081-7.619-4.708-12.328-4.708c-4.707,0-9.158,1.627-12.326,4.708c-5.992,5.735-6.25,15.152-6.25,22.343
			c0,7.19,0.258,16.693,6.25,22.428c3.168,3.081,7.619,4.708,12.326,4.708c4.709,0,9.16-1.627,12.328-4.708
			c5.992-5.735,6.248-15.238,6.248-22.428C641.305,100.767,641.049,91.35,635.057,85.615z"/>
		<path fill="#757575" d="M687.525,139.459c-5.82,0-11.812-2.397-16.007-6.591c-6.506-6.591-7.105-16.264-7.105-24.911
			s0.599-18.233,7.105-24.825c4.195-4.194,10.187-6.591,16.007-6.591c12.07,0,20.631,8.475,21.573,19.689h-4.624
			c-0.77-8.988-7.361-15.323-16.95-15.323c-5.393,0-9.501,1.883-12.754,5.222c-5.479,5.65-5.735,14.553-5.735,21.829
			c0,7.277,0.341,16.264,5.82,21.914c3.338,3.425,7.619,5.222,12.669,5.222c9.588,0,16.18-6.335,16.95-15.323h4.624
			C708.156,130.985,699.595,139.459,687.525,139.459z"/>
		<path fill="#757575" d="M770.982,138.346l-20.117-34.67l-15.751,17.805v16.864h-4.536V77.653h4.536v37.409l33.385-37.409h5.479
			l-20.117,22.685l22.172,38.008H770.982z"/>
		<path fill="#757575" d="M829.873,133.553c-4.108,4.023-10.186,5.906-17.206,5.906c-6.934,0-12.927-2.226-16.95-6.506
			c-2.997-3.167-5.05-7.447-5.479-12.07h4.622c0.428,3.595,2.14,6.934,4.451,9.331c3.253,3.339,8.305,4.965,13.355,4.965
			c5.221,0,10.443-1.37,13.782-4.536c2.14-2.055,3.594-4.88,3.594-8.732c0-5.821-4.536-10.872-11.812-11.813l-11.3-1.455
			c-8.559-1.114-14.895-5.992-14.895-15.323c0-5.051,2.226-8.646,5.308-11.471c3.767-3.425,9.331-5.308,14.98-5.308
			c6.506,0,13.012,2.654,16.436,6.678c2.569,2.996,4.28,6.163,4.624,10.529h-4.538c-0.428-3.081-1.369-5.393-3.338-7.704
			c-2.654-3.253-7.619-5.222-13.183-5.222c-4.366,0-8.559,1.113-11.556,3.681c-2.311,2.055-4.108,4.88-4.108,8.818
			c0,7.19,5.136,9.93,10.699,10.614l11.471,1.456c9.416,1.198,15.837,7.961,15.837,16.521
			C834.667,127.218,832.697,130.728,829.873,133.553z"/>
	</g>
</g>
</svg>
